<svg width="62" height="60" viewBox="0 0 62 60" fill="none" xmlns="http://www.w3.org/2000/svg">
<path d="M31 8C31.8284 8 32.5 7.32843 32.5 6.5C32.5 5.67157 31.8284 5 31 5C30.1716 5 29.5 5.67157 29.5 6.5C29.5 7.32843 30.1716 8 31 8Z" fill="#E9E9E9"/>
<path d="M6 34V6C6 4.67392 6.52678 3.40215 7.46447 2.46447C8.40215 1.52678 9.67392 1 11 1H51C52.3261 1 53.5979 1.52678 54.5355 2.46447C55.4732 3.40215 56 4.67392 56 6V34" stroke="#E9E9E9" stroke-width="2" stroke-miterlimit="10" stroke-linecap="square"/>
<path d="M39 40V44H23V40H1V41C1 43.1217 1.84285 45.1566 3.34315 46.6569C4.84344 48.1571 6.87827 49 9 49H53C55.1217 49 57.1566 48.1571 58.6569 46.6569C60.1571 45.1566 61 43.1217 61 41V40H39Z" stroke="#E9E9E9" stroke-width="2" stroke-miterlimit="10" stroke-linecap="square"/>
</svg>
