<svg width="62" height="60" viewBox="0 0 62 60" fill="none" xmlns="http://www.w3.org/2000/svg">
<path d="M31 27V11" stroke="#E9E9E9" stroke-width="2" stroke-miterlimit="10"/>
<path d="M10.0537 21.0809L26.9457 8.91895" stroke="#E9E9E9" stroke-width="2" stroke-miterlimit="10"/>
<path d="M13.5625 49.2111L7.43652 28.7891" stroke="#E9E9E9" stroke-width="2" stroke-miterlimit="10"/>
<path d="M42 54H20" stroke="#E9E9E9" stroke-width="2" stroke-miterlimit="10"/>
<path d="M35.0537 8.91895L51.9997 21.1199" stroke="#E9E9E9" stroke-width="2" stroke-miterlimit="10"/>
<path d="M35.7617 30.4759L51.2367 25.5239" stroke="#E9E9E9" stroke-width="2" stroke-miterlimit="10"/>
<path d="M10.7627 25.5239L26.2377 30.4759" stroke="#E9E9E9" stroke-width="2" stroke-miterlimit="10"/>
<path d="M17.9385 49.96L28.0605 36.042" stroke="#E9E9E9" stroke-width="2" stroke-miterlimit="10"/>
<path d="M44.0614 49.959L33.9404 36.042" stroke="#E9E9E9" stroke-width="2" stroke-miterlimit="10"/>
<path d="M31 37C33.7614 37 36 34.7614 36 32C36 29.2386 33.7614 27 31 27C28.2386 27 26 29.2386 26 32C26 34.7614 28.2386 37 31 37Z" stroke="#E9E9E9" stroke-width="2" stroke-miterlimit="10" stroke-linecap="square"/>
<path d="M54.5625 28.7891L48.4365 49.2111" stroke="#E9E9E9" stroke-width="2" stroke-miterlimit="10"/>
<path d="M31 11C33.7614 11 36 8.76142 36 6C36 3.23858 33.7614 1 31 1C28.2386 1 26 3.23858 26 6C26 8.76142 28.2386 11 31 11Z" stroke="#E9E9E9" stroke-width="2" stroke-miterlimit="10" stroke-linecap="square"/>
<path d="M56 29C58.7614 29 61 26.7614 61 24C61 21.2386 58.7614 19 56 19C53.2386 19 51 21.2386 51 24C51 26.7614 53.2386 29 56 29Z" stroke="#E9E9E9" stroke-width="2" stroke-miterlimit="10" stroke-linecap="square"/>
<path d="M47 59C49.7614 59 52 56.7614 52 54C52 51.2386 49.7614 49 47 49C44.2386 49 42 51.2386 42 54C42 56.7614 44.2386 59 47 59Z" stroke="#E9E9E9" stroke-width="2" stroke-miterlimit="10" stroke-linecap="square"/>
<path d="M15 59C17.7614 59 20 56.7614 20 54C20 51.2386 17.7614 49 15 49C12.2386 49 10 51.2386 10 54C10 56.7614 12.2386 59 15 59Z" stroke="#E9E9E9" stroke-width="2" stroke-miterlimit="10" stroke-linecap="square"/>
<path d="M6 29C8.76142 29 11 26.7614 11 24C11 21.2386 8.76142 19 6 19C3.23858 19 1 21.2386 1 24C1 26.7614 3.23858 29 6 29Z" stroke="#E9E9E9" stroke-width="2" stroke-miterlimit="10" stroke-linecap="square"/>
</svg>
