<svg width="60" height="60" viewBox="0 0 60 60" fill="none" xmlns="http://www.w3.org/2000/svg">
<path d="M13.3767 6.23389C15.2057 7.58589 16.6107 11.0239 16.6107 11.0239C17.5102 11.66 18.2257 12.5224 18.6847 13.5239C18.9612 14.6054 18.9705 15.738 18.7117 16.8239C18.7117 16.8239 20.1117 20.9359 19.4537 22.0899C18.7957 23.2439 15.9927 23.9839 15.9927 23.9839C15.6126 24.6329 15.101 25.1953 14.4909 25.6351C13.8808 26.0749 13.1856 26.3824 12.4497 26.5379C11.5772 26.5868 10.7592 26.9777 10.1731 27.6258C9.58694 28.2739 9.27995 29.1269 9.3187 29.9999C9.3187 32.2249 11.5427 35.8489 11.5427 35.8489C11.5427 35.8489 13.8497 36.9769 14.1797 37.7999C14.4275 38.6951 14.5754 39.6151 14.6207 40.5429C14.6207 40.5429 16.8207 44.4159 15.5797 46.6429C15.1857 47.3529 13.3557 47.8789 13.3557 47.8789L10.7897 51.7269" stroke="#E9E9E9" stroke-width="2" stroke-miterlimit="10"/>
<path d="M52.8873 12.1878C50.3979 13.2272 47.8238 14.0506 45.1933 14.6488C45.1933 14.6488 41.6163 18.6308 39.2683 18.3008C36.9203 17.9708 34.5313 15.3358 34.5313 15.3358C34.5313 15.3358 34.6953 10.4748 33.9543 10.2278C33.2133 9.98084 31.2353 11.2998 30.0003 10.3098C28.7653 9.31984 29.4773 6.53484 29.4773 6.53484C29.4773 6.53484 26.7873 5.69684 26.4573 4.78984C26.1273 3.88284 27.4363 1.86584 27.6863 1.08984" stroke="#E9E9E9" stroke-width="2" stroke-miterlimit="10"/>
<path d="M51.2563 31.8999C51.9153 33.4649 50.0193 37.4629 48.4563 38.2429C46.8575 38.9678 45.4638 40.0783 44.4003 41.4749C43.8223 42.3819 43.0653 46.1209 41.1693 46.8629C39.2733 47.6049 34.7823 51.8319 32.3943 51.1729C30.0063 50.5139 30.0043 44.8299 31.6523 42.2729C32.6363 40.7479 31.4883 37.4119 31.4053 36.2579C31.3223 35.1039 27.8623 32.9579 27.8623 31.8089C27.8623 29.9969 31.8163 25.2189 31.8163 25.2189C31.8163 25.2189 35.0573 24.1479 36.0463 24.3949C37.0447 24.7608 38.0014 25.2318 38.9003 25.7999C38.9003 25.7999 42.6073 26.1289 44.0083 26.8709L45.9083 28.6009C45.9083 28.6009 50.6003 30.3299 51.2563 31.8999Z" stroke="#E9E9E9" stroke-width="2" stroke-miterlimit="10" stroke-linecap="square"/>
<path d="M30 59C46.0163 59 59 46.0163 59 30C59 13.9837 46.0163 1 30 1C13.9837 1 1 13.9837 1 30C1 46.0163 13.9837 59 30 59Z" stroke="#E9E9E9" stroke-width="2" stroke-miterlimit="10" stroke-linecap="square"/>
</svg>
