<svg width="38" height="46" viewBox="0 0 38 46" fill="none" xmlns="http://www.w3.org/2000/svg">
<path d="M37.164 3.01275L19.164 0.0127515C19.0553 -0.00425049 18.9447 -0.00425049 18.836 0.0127515L0.836 3.01275C0.602329 3.0516 0.390036 3.17214 0.236936 3.35289C0.0838365 3.53364 -0.000127682 3.76287 1.4574e-07 3.99975V24.9998C1.4574e-07 31.0578 3.256 36.6118 9.414 41.0598C12.2645 43.1077 15.3839 44.7525 18.684 45.9478C18.889 46.0171 19.111 46.0171 19.316 45.9478C22.6161 44.7525 25.7355 43.1077 28.586 41.0598C34.744 36.6118 38 31.0578 38 24.9998V3.99975C38.0001 3.76287 37.9162 3.53364 37.7631 3.35289C37.61 3.17214 37.3977 3.0516 37.164 3.01275V3.01275Z" fill="#FFE164"/>
<path d="M37.1601 3.01265L19.1601 0.012645C19.1055 0.00815479 19.0507 0.00815479 18.9961 0.012645V45.9996C19.1039 45.9993 19.2109 45.9817 19.3131 45.9476C22.6127 44.752 25.7318 43.1072 28.5821 41.0596C34.7401 36.6116 37.9981 31.0576 37.9981 24.9996V3.99964C37.9981 3.76248 37.9139 3.53301 37.7604 3.35221C37.6069 3.17142 37.3941 3.05107 37.1601 3.01265Z" fill="#E8C63C"/>
<rect x="17" y="8" width="4" height="20" rx="1" fill="#35363A"/>
<rect x="17" y="31" width="4" height="4" rx="1" fill="#35363A"/>
</svg>
