<svg viewBox="0 0 32 32" fill="none" xmlns="http://www.w3.org/2000/svg">
  <circle cx="16" cy="16" r="16" fill="#01AE7D"/>
  <path d="M24.8205 12.0325L14.8744 22.7594C14.8076 22.8315 14.7255 22.89 14.6332 22.9313C14.5408 22.9726 14.4402 22.9958 14.3377 22.9995C14.2352 23.0032 14.133 22.9872 14.0374 22.9527C13.9419 22.9181 13.8551 22.8657 13.7825 22.7987L8.21807 17.6545C8.07844 17.5254 8 17.3503 8 17.1677C8 16.9852 8.07844 16.8101 8.21807 16.6809L9.27122 15.7073C9.41089 15.5782 9.6003 15.5057 9.7978 15.5057C9.9953 15.5057 10.1847 15.5782 10.3244 15.7073L14.1825 19.274L22.5578 10.2402C22.6864 10.1017 22.8693 10.016 23.0662 10.002C23.2632 9.98807 23.458 10.047 23.608 10.1659L24.7393 11.061C24.8137 11.1198 24.8748 11.1916 24.9192 11.2723C24.9635 11.353 24.9902 11.441 24.9978 11.5312C25.0053 11.6214 24.9936 11.7122 24.9631 11.7982C24.9327 11.8842 24.8842 11.9638 24.8205 12.0325Z" fill="#35363A"/>
</svg>
